<svg xmlns="http://www.w3.org/2000/svg" width="41" height="37" viewBox="0 0 41 37"><g><g><path d="M.49 2.09h4.84l6.702 22.796c.18.667.799 1.13 1.494 1.13h18.269c.618 0 1.159-.36 1.417-.925l7.016-14.949A1.553 1.553 0 0 0 40.1 8.68a1.536 1.536 0 0 0-1.288-.693H18.499l.01 2.03h19.542L31.795 24.09H13.526l-6.583-23A1.545 1.545 0 0 0 5.45-.04H.49z"/></g><g><path d="M12.88 36.96c1.488 0 2.699-1.206 2.699-2.69 0-1.483-1.211-2.69-2.7-2.69a2.698 2.698 0 0 0-2.699 2.69c0 1.484 1.21 2.69 2.7 2.69z"/></g><g><path d="M31.88 36.96c1.488 0 2.699-1.206 2.699-2.69 0-1.483-1.211-2.69-2.7-2.69a2.698 2.698 0 0 0-2.699 2.69c0 1.484 1.21 2.69 2.7 2.69z"/></g></g></svg>