<svg xmlns="http://www.w3.org/2000/svg" width="24" height="24" viewBox="0 0 24 24"><g><g><path fill="#2d2a2a" d="M10 12a2 2 0 1 1 4 0 2 2 0 0 1-4 0zm10.235-3.484a.65.65 0 0 1 .13-.717l.052-.052a3 3 0 0 0-2.122-5.124 3 3 0 0 0-2.123.88l-.06.06a.647.647 0 0 1-.708.122.654.654 0 0 1-.404-.599V3a3 3 0 0 0-6 0v.17c0 .214-.11.412-.285.531a1 1 0 0 0-.199.064.65.65 0 0 1-.717-.13l-.052-.052a3 3 0 0 0-5.124 2.122 3 3 0 0 0 .88 2.123l.06.06c.178.181.23.465.122.708A.698.698 0 0 1 3 9.08a3 3 0 0 0 0 6h.17a.649.649 0 0 1 .59.394.654.654 0 0 1-.125.727l-.052.052a3 3 0 0 0 2.122 5.124 3 3 0 0 0 2.123-.88l.06-.06a.647.647 0 0 1 .708-.122c.31.116.478.352.484.685a3 3 0 0 0 6 0v-.17a.649.649 0 0 1 .394-.59.654.654 0 0 1 .727.125l.052.052a3 3 0 0 0 5.124-2.122 3 3 0 0 0-.88-2.123l-.06-.06a.65.65 0 0 1-.118-.718.65.65 0 0 1 .595-.394H21a3 3 0 0 0 0-6h-.17a.647.647 0 0 1-.531-.285 1 1 0 0 0-.064-.199zM9.394 5.6A2.65 2.65 0 0 0 11 3.174V3a1 1 0 0 1 2 0v.09a2.651 2.651 0 0 0 1.606 2.43 2.646 2.646 0 0 0 2.913-.535l.068-.068a1 1 0 1 1 1.416 1.415l-.06.06a2.655 2.655 0 0 0-.615 2.738 1 1 0 0 0 .073.264A2.65 2.65 0 0 0 20.826 11H21a1 1 0 0 1 0 2h-.09a2.648 2.648 0 0 0-2.425 1.596 2.65 2.65 0 0 0 .53 2.923l.068.068a1 1 0 1 1-1.416 1.416l-.06-.06a2.654 2.654 0 0 0-2.93-.538 2.646 2.646 0 0 0-1.597 2.421V21a1 1 0 0 1-2 0v-.09a2.657 2.657 0 0 0-1.735-2.449c-.932-.413-2.09-.203-2.864.554l-.068.068a1 1 0 1 1-1.416-1.416l.06-.06c.765-.782.975-1.94.538-2.93a2.646 2.646 0 0 0-2.421-1.597H3a1 1 0 0 1 0-2h.09a2.657 2.657 0 0 0 2.449-1.735c.413-.932.203-2.09-.554-2.864l-.068-.068a1 1 0 1 1 1.415-1.416l.06.06a2.655 2.655 0 0 0 2.738.615 1 1 0 0 0 .264-.073zM16 12a4 4 0 1 0-8 0 4 4 0 0 0 8 0z"/></g></g></svg>