<?xml version="1.0" encoding="UTF-8"?>
<svg width="22px" height="22px" viewBox="0 0 22 22" version="1.1" xmlns="http://www.w3.org/2000/svg" xmlns:xlink="http://www.w3.org/1999/xlink">
    <!-- Generator: sketchtool 51.2 (57519) - http://www.bohemiancoding.com/sketch -->
    <title>AD9739F4-D771-4198-B5B9-3F99547BC0B3</title>
    <desc>Created with sketchtool.</desc>
    <defs>
        <path d="M20.8881274,16.2150944 C20.9010301,15.7048694 20.5312165,15.2865894 20.0373699,15.2197832 C19.002532,15.0889855 17.9864556,14.8464169 17.0062665,14.4958946 C16.640829,14.3642508 16.2288634,14.4484499 15.9552342,14.7077385 L14.6852342,15.9248218 C14.3669212,16.2298717 13.8751568,16.2934932 13.4838329,16.0802517 C10.8238155,14.630746 8.6213606,12.5200602 7.10883291,9.97087687 C6.88632003,9.5958582 6.95270764,9.12458396 7.27102064,8.81953401 L8.53707512,7.60625306 C8.81158265,7.34022274 8.89944262,6.94542237 8.76123017,6.59304939 C8.39631276,5.65586361 8.14319766,4.68212381 8.00796907,3.6992151 C7.93771949,3.22290787 7.5099011,2.87031422 6.99812742,2.87509487 L3.99906915,2.87509445 C3.71836627,2.87534778 3.45069892,2.988652 3.26145204,3.18732953 C3.07220515,3.38600705 2.97880575,3.65176241 3.00253616,3.90472858 C3.31419285,6.71724979 4.31278313,9.41986762 5.92214121,11.8007032 C7.37874217,13.9974576 9.32218327,15.859922 11.6222286,17.2606173 C14.0879999,18.7930341 16.8944746,19.7497992 19.7981357,20.0523175 C20.0785676,20.0766055 20.3566895,19.9864663 20.5641746,19.8040444 C20.7716596,19.6216225 20.8892786,19.3638245 20.8881274,19.0900943 L20.8881274,16.2150944 Z M13.2710206,14.569534 L14.4724219,14.4141041 C14.2526638,14.2943527 14.036445,14.1694869 13.8239339,14.039668 L13.2710206,14.569534 Z M22.8881192,19.0862045 C22.8915479,19.8957255 22.5386911,20.6691196 21.916236,21.2163852 C21.2937808,21.7636508 20.4594151,22.0340685 19.6001051,21.9594865 C16.367448,21.6228675 13.2622533,20.5642648 10.5418059,18.8735242 C8.00172781,17.3267059 5.84818497,15.2628941 4.23884754,12.8357233 C2.46342782,10.2092959 1.358548,7.21901257 1.0121857,4.09217857 C0.936395512,3.28843258 1.21659371,2.49116649 1.78433437,1.89513391 C2.35207502,1.29910134 3.15507706,0.959188669 3.99812742,0.958428252 L6.98828577,0.958474664 C8.49408185,0.944271939 9.77753704,2.00205289 9.98954181,3.43978558 C10.1063032,4.28819318 10.322841,5.12121914 10.6341797,5.92081141 C11.0462822,6.97144423 10.7827023,8.15584534 9.9552342,8.95773865 L9.23814163,9.64495235 C10.4139976,11.4127407 11.9792846,12.9128066 13.8239339,14.0396678 L14.5449883,13.3486694 C15.3777789,12.5594602 16.6136758,12.3068629 17.7077323,12.7009847 C18.5443455,13.0001607 19.41359,13.207676 20.3078197,13.320741 C21.8116623,13.5240566 22.9189792,14.7720248 22.8881274,16.2258055 L22.8881192,19.0862045 Z" id="path-1"></path>
    </defs>
    <g id="Контакты" stroke="none" stroke-width="1" fill="none" fill-rule="evenodd">
        <g id="1260---Контакты" transform="translate(-81.000000, -395.000000)">
            <g id="Group-3" transform="translate(80.000000, 198.000000)">
                <g id="Stacked-Group">
                    <g id="Group-2">
                        <g id="Group" transform="translate(0.000000, 66.000000)">
                            <g id="Контакты" transform="translate(0.000000, 129.000000)">
                                <g id="Stacked-Group-2">
                                    <g id="Ic/phone" transform="translate(0.000000, 2.000000)">
                                        <mask id="mask-2" fill="white">
                                            <use xlink:href="#path-1"></use>
                                        </mask>
                                        <use id="Shape" fill="#000000" fill-rule="nonzero" xlink:href="#path-1"></use>
                                        <g id="COLOR/-black" mask="url(#mask-2)" fill="#000000">
                                            <rect id="Rectangle-8" x="0" y="0" width="24" height="23"></rect>
                                        </g>
                                    </g>
                                </g>
                            </g>
                        </g>
                    </g>
                </g>
            </g>
        </g>
    </g>
</svg>