<svg xmlns="http://www.w3.org/2000/svg" width="37" height="31" viewBox="0 0 37 31"><g><g><path fill="#2d2a2a" d="M31.628 16.36h-7.877v-1.83h7.877v-4.15h1.81v10.277h-1.81zM5.645 14.53h7.161v1.83h-7.16v4.297H3.832V10.38h1.812zm23.87 15.015h6.026v-6.112h-6.025zm-1.448-7.576H37V31h-8.933zM1.45 29.545h6.025v-6.112H1.45zM0 21.97h8.933V31H0zm15.264-3.235H21.3v-6.102h-6.035zm-1.448-7.567h8.933V20.2h-8.933zM35.54 1.465h-6.025v6.112h6.025zM37 0v9.031h-8.933V0zM7.474 1.465H1.45v6.112h6.025zM8.933 9.03H0V0h8.933z"/></g></g></svg>